<?xml version="1.0"?>
<svg xmlns:rdf="http://www.w3.org/1999/02/22-rdf-syntax-ns#" xmlns="http://www.w3.org/2000/svg" xmlns:cc="http://creativecommons.org/ns#" xmlns:xlink="http://www.w3.org/1999/xlink" xmlns:dc="http://purl.org/dc/elements/1.1/" xmlns:svg="http://www.w3.org/2000/svg" viewBox="0 0 744.09 1052.4" version="1.1">
  <path id="bassClef" d="m190.85 451.25c11.66 14.71 32.32 24.49 55.84 24.49 36.40 0 65.88-23.37 65.88-52.21s-29.48-52.21-65.88-52.21c-20.31 4.15-28.59 9.00-33.14-2.90 17.97-54.32 46.91-66.70 96.54-66.70 65.91 0 96.96 59.89 96.96 142.97-18.22 190.63-205.95 286.75-246.57 316.19 5.69 13.10 5.39 12.63 5.39 12.00 189.78-86.20 330.69-204.43 330.69-320.74 0-92.41-58.57-175.59-187.72-172.8-77.57 0-170.32 86.20-118 171.93zm328.1-89.88c0 17.85 14.47 32.32 32.32 32.32s32.32-14.47 32.32-32.32-14.47-32.32-32.32-32.32-32.32 14.47-32.32 32.32zm0 136.75c0 17.85 14.47 32.32 32.32 32.32s32.32-14.47 32.32-32.32-14.47-32.32-32.32-32.32-32.32 14.47-32.32 32.32z" stroke="none" fill="currentColor"/>
</svg>
