<?xml version="1.0" encoding="UTF-8" standalone="no"?>
<!-- Created with Inkscape (http://www.inkscape.org/) -->
<svg xmlns:svg="http://www.w3.org/2000/svg" xmlns="http://www.w3.org/2000/svg" version="1.0" width="6" height="13">
  <g transform="translate(0,-1.53)">
    <g transform="translate(-94.94,-433.75)">
      <path d="M 98.16,443.65 C 98.16,444.23 97.95,444.78 97.35,445.52 C 96.73,446.30 96.20,446.75 95.51,447.28 L 95.51,443.84 C 95.66,443.44 95.90,443.12 96.21,442.87 C 96.51,442.63 96.83,442.50 97.14,442.50 C 97.66,442.50 97.99,442.80 98.14,443.39 C 98.15,443.44 98.16,443.52 98.16,443.65 z M 98.09,441.25 C 97.66,441.25 97.22,441.37 96.77,441.61 C 96.33,441.85 95.90,442.17 95.51,442.56 L 95.51,435.29 L 94.94,435.29 L 94.94,447.75 C 94.94,448.10 95.04,448.28 95.23,448.28 C 95.34,448.28 95.48,448.18 95.69,448.06 C 96.27,447.71 96.63,447.48 97.03,447.23 C 97.48,446.95 97.99,446.63 98.66,445.99 C 99.12,445.52 99.45,445.05 99.66,444.58 C 99.87,444.11 99.97,443.64 99.97,443.17 C 99.97,442.49 99.79,442.00 99.42,441.71 C 99.01,441.40 98.56,441.25 98.09,441.25 z "/>
    </g>
  </g>
</svg>