<?xml version="1.0" encoding="UTF-8" standalone="no"?>
<svg
   xmlns:dc="http://purl.org/dc/elements/1.1/"
   xmlns:cc="http://creativecommons.org/ns#"
   xmlns:rdf="http://www.w3.org/1999/02/22-rdf-syntax-ns#"
   xmlns:svg="http://www.w3.org/2000/svg"
   xmlns="http://www.w3.org/2000/svg"
   version="1.1"
   viewBox="0 0 11 153">
   <path
      id="path126"
      d="m 10.76136,0.03000266 c -0.46273,0.0273 -0.9538802,0.51701002 -1.7903505,1.71978994 -1.69192,2.24004 -4.1191195,7.48613 -5.0888192,10.2217304 -1.45418,5.73901 -1.93111,12.71805 -1.44639,19.4557 0.2375,2.23753 0.71468,7.21998 1.44639,11.20951 C 5.08939,52.119989 5.3374,56.109709 5.3374,60.099229 c -0.24723,6.48235 -1.9328797,11.71326 -4.60374974,15.20473 -0.48497,0.49806 -0.72319,0.99707 -0.72319,1.25236 0,0.25528 0.23822,0.7543 0.72319,1.25236 2.67087004,3.49146 4.35651974,8.7182 4.60374974,14.95778 0,4.23231 -0.24801,8.216901 -1.4552097,17.444861 -0.73171,4.24482 -1.20889,9.2324 -1.44639,11.22716 -0.48472,6.98042 -0.008,13.96315 1.44639,19.44687 1.2071997,4.48758 5.5742892,12.22375 6.7909797,12.22375 0.48472,0 0.97014,-0.50486 0.97014,-1.00542 0,-0.25278 -0.48542,-0.99288 -0.97014,-1.74625 -2.9086105,-4.23229 -4.12785,-8.47542 -4.61257,-14.95777 0,-3.98954 0.24801,-7.7335 1.4551995,-17.20674 0.48473,-3.73424 0.9701,-8.22282 1.21709,-9.97479 0.96969,-11.966081 -0.96426,-22.190131 -5.8120192,-29.668621 -0.73195,-0.99863 -1.21708,-1.99319 -1.21708,-1.99319 0,0 0.48513,-1.00337 1.21708,-2.00202 4.8477592,-7.47847 6.7817092,-17.703 5.8120192,-29.924366 -0.24699,-1.49669 -0.73236,-5.97895 -1.21709,-9.96598 C 6.30861,25.443503 6.0606,21.693703 6.0606,17.704163 6.54532,11.221813 7.7645595,6.9786826 10.67317,2.7463826 c 0.96945,-1.4967 1.21674,-1.98901992 0.73201,-2.48707994 -0.22874,-0.15643 -0.43349,-0.24169 -0.64382,-0.2293 z"
   />
</svg>
